<mxfile host="app.diagrams.net" modified="2023-08-14T02:06:46.238Z" agent="Mozilla/5.0 (Macintosh; Intel Mac OS X 10_15_7) AppleWebKit/537.36 (KHTML, like Gecko) Chrome/115.0.0.0 Safari/537.36" etag="SHX_oHLqdnmuO1_UTyMN" version="21.6.8" type="github">
  <diagram name="Page-1" id="IeB3n_JvHh7H0618miAj">
    <mxGraphModel dx="995" dy="560" grid="1" gridSize="10" guides="1" tooltips="1" connect="1" arrows="1" fold="1" page="1" pageScale="1" pageWidth="850" pageHeight="1100" math="0" shadow="0">
      <root>
        <mxCell id="0" />
        <mxCell id="1" parent="0" />
        <mxCell id="g7GBnndQMGoT47EMK83g-1" value="1" style="rounded=0;whiteSpace=wrap;html=1;" vertex="1" parent="1">
          <mxGeometry x="135" y="314" width="40" height="40" as="geometry" />
        </mxCell>
        <mxCell id="g7GBnndQMGoT47EMK83g-2" value="final buckets" style="text;html=1;strokeColor=none;fillColor=none;align=center;verticalAlign=middle;whiteSpace=wrap;rounded=0;" vertex="1" parent="1">
          <mxGeometry x="35" y="319" width="70" height="30" as="geometry" />
        </mxCell>
        <mxCell id="g7GBnndQMGoT47EMK83g-3" value="0.125" style="text;html=1;strokeColor=none;fillColor=none;align=center;verticalAlign=middle;whiteSpace=wrap;rounded=0;" vertex="1" parent="1">
          <mxGeometry x="105" y="349" width="60" height="30" as="geometry" />
        </mxCell>
        <mxCell id="g7GBnndQMGoT47EMK83g-4" value="0.25" style="text;html=1;strokeColor=none;fillColor=none;align=center;verticalAlign=middle;whiteSpace=wrap;rounded=0;" vertex="1" parent="1">
          <mxGeometry x="145" y="349" width="60" height="30" as="geometry" />
        </mxCell>
        <mxCell id="g7GBnndQMGoT47EMK83g-5" value="1" style="rounded=0;whiteSpace=wrap;html=1;" vertex="1" parent="1">
          <mxGeometry x="175" y="314" width="40" height="40" as="geometry" />
        </mxCell>
        <mxCell id="g7GBnndQMGoT47EMK83g-6" value="0.5" style="text;html=1;strokeColor=none;fillColor=none;align=center;verticalAlign=middle;whiteSpace=wrap;rounded=0;" vertex="1" parent="1">
          <mxGeometry x="185" y="349" width="60" height="30" as="geometry" />
        </mxCell>
        <mxCell id="g7GBnndQMGoT47EMK83g-7" value="" style="rounded=0;whiteSpace=wrap;html=1;" vertex="1" parent="1">
          <mxGeometry x="215" y="314" width="40" height="40" as="geometry" />
        </mxCell>
        <mxCell id="g7GBnndQMGoT47EMK83g-8" value="1" style="text;html=1;strokeColor=none;fillColor=none;align=center;verticalAlign=middle;whiteSpace=wrap;rounded=0;" vertex="1" parent="1">
          <mxGeometry x="225" y="349" width="60" height="30" as="geometry" />
        </mxCell>
        <mxCell id="g7GBnndQMGoT47EMK83g-9" value="" style="rounded=0;whiteSpace=wrap;html=1;" vertex="1" parent="1">
          <mxGeometry x="255" y="314" width="40" height="40" as="geometry" />
        </mxCell>
        <mxCell id="g7GBnndQMGoT47EMK83g-10" value="2" style="text;html=1;strokeColor=none;fillColor=none;align=center;verticalAlign=middle;whiteSpace=wrap;rounded=0;" vertex="1" parent="1">
          <mxGeometry x="265" y="349" width="60" height="30" as="geometry" />
        </mxCell>
        <mxCell id="g7GBnndQMGoT47EMK83g-11" value="bucket index" style="text;html=1;strokeColor=none;fillColor=none;align=center;verticalAlign=middle;whiteSpace=wrap;rounded=0;" vertex="1" parent="1">
          <mxGeometry x="35" y="289" width="70" height="30" as="geometry" />
        </mxCell>
        <mxCell id="g7GBnndQMGoT47EMK83g-12" value="-2" style="text;html=1;strokeColor=none;fillColor=none;align=center;verticalAlign=middle;whiteSpace=wrap;rounded=0;" vertex="1" parent="1">
          <mxGeometry x="125" y="289" width="60" height="30" as="geometry" />
        </mxCell>
        <mxCell id="g7GBnndQMGoT47EMK83g-13" value="-1" style="text;html=1;strokeColor=none;fillColor=none;align=center;verticalAlign=middle;whiteSpace=wrap;rounded=0;" vertex="1" parent="1">
          <mxGeometry x="165" y="289" width="60" height="30" as="geometry" />
        </mxCell>
        <mxCell id="g7GBnndQMGoT47EMK83g-14" value="0" style="text;html=1;strokeColor=none;fillColor=none;align=center;verticalAlign=middle;whiteSpace=wrap;rounded=0;" vertex="1" parent="1">
          <mxGeometry x="205" y="289" width="60" height="30" as="geometry" />
        </mxCell>
        <mxCell id="g7GBnndQMGoT47EMK83g-15" value="1" style="text;html=1;strokeColor=none;fillColor=none;align=center;verticalAlign=middle;whiteSpace=wrap;rounded=0;" vertex="1" parent="1">
          <mxGeometry x="245" y="289" width="60" height="30" as="geometry" />
        </mxCell>
        <mxCell id="g7GBnndQMGoT47EMK83g-16" value="" style="rounded=0;whiteSpace=wrap;html=1;" vertex="1" parent="1">
          <mxGeometry x="295" y="314" width="40" height="40" as="geometry" />
        </mxCell>
        <mxCell id="g7GBnndQMGoT47EMK83g-17" value="4" style="text;html=1;strokeColor=none;fillColor=none;align=center;verticalAlign=middle;whiteSpace=wrap;rounded=0;" vertex="1" parent="1">
          <mxGeometry x="305" y="349" width="60" height="30" as="geometry" />
        </mxCell>
        <mxCell id="g7GBnndQMGoT47EMK83g-18" value="2" style="text;html=1;strokeColor=none;fillColor=none;align=center;verticalAlign=middle;whiteSpace=wrap;rounded=0;" vertex="1" parent="1">
          <mxGeometry x="285" y="289" width="60" height="30" as="geometry" />
        </mxCell>
        <mxCell id="g7GBnndQMGoT47EMK83g-19" value="offset -2 length 2" style="rounded=0;whiteSpace=wrap;html=1;" vertex="1" parent="1">
          <mxGeometry x="135" y="215" width="80" height="40" as="geometry" />
        </mxCell>
        <mxCell id="g7GBnndQMGoT47EMK83g-20" value="spansA" style="text;html=1;align=center;verticalAlign=middle;resizable=0;points=[];autosize=1;strokeColor=none;fillColor=none;" vertex="1" parent="1">
          <mxGeometry x="30" y="220" width="60" height="30" as="geometry" />
        </mxCell>
        <mxCell id="g7GBnndQMGoT47EMK83g-21" value="1" style="rounded=0;whiteSpace=wrap;html=1;" vertex="1" parent="1">
          <mxGeometry x="135" y="135" width="40" height="40" as="geometry" />
        </mxCell>
        <mxCell id="g7GBnndQMGoT47EMK83g-22" value="1" style="rounded=0;whiteSpace=wrap;html=1;" vertex="1" parent="1">
          <mxGeometry x="175" y="135" width="40" height="40" as="geometry" />
        </mxCell>
        <mxCell id="g7GBnndQMGoT47EMK83g-23" value="bucketsA" style="text;html=1;align=center;verticalAlign=middle;resizable=0;points=[];autosize=1;strokeColor=none;fillColor=none;" vertex="1" parent="1">
          <mxGeometry x="30" y="140" width="70" height="30" as="geometry" />
        </mxCell>
        <mxCell id="g7GBnndQMGoT47EMK83g-24" value="" style="rounded=0;whiteSpace=wrap;html=1;" vertex="1" parent="1">
          <mxGeometry x="335" y="314" width="40" height="40" as="geometry" />
        </mxCell>
        <mxCell id="g7GBnndQMGoT47EMK83g-25" value="8" style="text;html=1;strokeColor=none;fillColor=none;align=center;verticalAlign=middle;whiteSpace=wrap;rounded=0;" vertex="1" parent="1">
          <mxGeometry x="345" y="349" width="60" height="30" as="geometry" />
        </mxCell>
        <mxCell id="g7GBnndQMGoT47EMK83g-26" value="3" style="text;html=1;strokeColor=none;fillColor=none;align=center;verticalAlign=middle;whiteSpace=wrap;rounded=0;" vertex="1" parent="1">
          <mxGeometry x="325" y="289" width="60" height="30" as="geometry" />
        </mxCell>
        <mxCell id="g7GBnndQMGoT47EMK83g-27" value="offset 2&lt;br&gt;length 3" style="rounded=0;whiteSpace=wrap;html=1;" vertex="1" parent="1">
          <mxGeometry x="295" y="215" width="120" height="40" as="geometry" />
        </mxCell>
        <mxCell id="g7GBnndQMGoT47EMK83g-28" value="2" style="rounded=0;whiteSpace=wrap;html=1;" vertex="1" parent="1">
          <mxGeometry x="215" y="135" width="40" height="40" as="geometry" />
        </mxCell>
        <mxCell id="g7GBnndQMGoT47EMK83g-29" value="3" style="rounded=0;whiteSpace=wrap;html=1;" vertex="1" parent="1">
          <mxGeometry x="255" y="135" width="40" height="40" as="geometry" />
        </mxCell>
        <mxCell id="g7GBnndQMGoT47EMK83g-30" value="" style="endArrow=classic;startArrow=classic;html=1;rounded=0;entryX=0;entryY=0.5;entryDx=0;entryDy=0;exitX=1;exitY=0.5;exitDx=0;exitDy=0;" edge="1" parent="1" source="g7GBnndQMGoT47EMK83g-19" target="g7GBnndQMGoT47EMK83g-27">
          <mxGeometry width="50" height="50" relative="1" as="geometry">
            <mxPoint x="215" y="245" as="sourcePoint" />
            <mxPoint x="265" y="195" as="targetPoint" />
          </mxGeometry>
        </mxCell>
        <mxCell id="g7GBnndQMGoT47EMK83g-31" value="&lt;span style=&quot;color: rgb(0, 0, 0); font-family: Helvetica; font-size: 12px; font-style: normal; font-variant-ligatures: normal; font-variant-caps: normal; font-weight: 400; letter-spacing: normal; orphans: 2; text-align: center; text-indent: 0px; text-transform: none; widows: 2; word-spacing: 0px; -webkit-text-stroke-width: 0px; background-color: rgb(251, 251, 251); text-decoration-thickness: initial; text-decoration-style: initial; text-decoration-color: initial; float: none; display: inline !important;&quot;&gt;offset 2&lt;/span&gt;" style="text;whiteSpace=wrap;html=1;" vertex="1" parent="1">
          <mxGeometry x="235" y="210" width="60" height="40" as="geometry" />
        </mxCell>
        <mxCell id="g7GBnndQMGoT47EMK83g-32" value="" style="rounded=0;whiteSpace=wrap;html=1;" vertex="1" parent="1">
          <mxGeometry x="375" y="314" width="40" height="40" as="geometry" />
        </mxCell>
        <mxCell id="g7GBnndQMGoT47EMK83g-33" value="4" style="text;html=1;strokeColor=none;fillColor=none;align=center;verticalAlign=middle;whiteSpace=wrap;rounded=0;" vertex="1" parent="1">
          <mxGeometry x="365" y="289" width="60" height="30" as="geometry" />
        </mxCell>
        <mxCell id="g7GBnndQMGoT47EMK83g-34" value="16" style="text;html=1;strokeColor=none;fillColor=none;align=center;verticalAlign=middle;whiteSpace=wrap;rounded=0;" vertex="1" parent="1">
          <mxGeometry x="385" y="349" width="60" height="30" as="geometry" />
        </mxCell>
        <mxCell id="g7GBnndQMGoT47EMK83g-35" value="0" style="text;html=1;strokeColor=none;fillColor=none;align=center;verticalAlign=middle;whiteSpace=wrap;rounded=0;" vertex="1" parent="1">
          <mxGeometry x="145" y="190" width="60" height="30" as="geometry" />
        </mxCell>
        <mxCell id="g7GBnndQMGoT47EMK83g-36" value="1" style="text;html=1;strokeColor=none;fillColor=none;align=center;verticalAlign=middle;whiteSpace=wrap;rounded=0;" vertex="1" parent="1">
          <mxGeometry x="325" y="190" width="60" height="30" as="geometry" />
        </mxCell>
        <mxCell id="g7GBnndQMGoT47EMK83g-37" value="3" style="rounded=0;whiteSpace=wrap;html=1;" vertex="1" parent="1">
          <mxGeometry x="295" y="135" width="40" height="40" as="geometry" />
        </mxCell>
        <mxCell id="g7GBnndQMGoT47EMK83g-38" value="0" style="text;html=1;strokeColor=none;fillColor=none;align=center;verticalAlign=middle;whiteSpace=wrap;rounded=0;" vertex="1" parent="1">
          <mxGeometry x="125" y="110" width="60" height="30" as="geometry" />
        </mxCell>
        <mxCell id="g7GBnndQMGoT47EMK83g-39" value="1" style="text;html=1;strokeColor=none;fillColor=none;align=center;verticalAlign=middle;whiteSpace=wrap;rounded=0;" vertex="1" parent="1">
          <mxGeometry x="165" y="110" width="60" height="30" as="geometry" />
        </mxCell>
        <mxCell id="g7GBnndQMGoT47EMK83g-40" value="2" style="text;html=1;strokeColor=none;fillColor=none;align=center;verticalAlign=middle;whiteSpace=wrap;rounded=0;" vertex="1" parent="1">
          <mxGeometry x="205" y="110" width="60" height="30" as="geometry" />
        </mxCell>
        <mxCell id="g7GBnndQMGoT47EMK83g-41" value="3" style="text;html=1;strokeColor=none;fillColor=none;align=center;verticalAlign=middle;whiteSpace=wrap;rounded=0;" vertex="1" parent="1">
          <mxGeometry x="245" y="110" width="60" height="30" as="geometry" />
        </mxCell>
        <mxCell id="g7GBnndQMGoT47EMK83g-42" value="4" style="text;html=1;strokeColor=none;fillColor=none;align=center;verticalAlign=middle;whiteSpace=wrap;rounded=0;" vertex="1" parent="1">
          <mxGeometry x="285" y="110" width="60" height="30" as="geometry" />
        </mxCell>
        <mxCell id="g7GBnndQMGoT47EMK83g-43" value="" style="endArrow=none;dashed=1;html=1;rounded=0;entryX=0;entryY=1;entryDx=0;entryDy=0;exitX=0;exitY=0;exitDx=0;exitDy=0;" edge="1" parent="1" source="g7GBnndQMGoT47EMK83g-19" target="g7GBnndQMGoT47EMK83g-21">
          <mxGeometry width="50" height="50" relative="1" as="geometry">
            <mxPoint x="365" y="305" as="sourcePoint" />
            <mxPoint x="415" y="255" as="targetPoint" />
          </mxGeometry>
        </mxCell>
        <mxCell id="g7GBnndQMGoT47EMK83g-44" value="" style="endArrow=none;dashed=1;html=1;rounded=0;entryX=1;entryY=1;entryDx=0;entryDy=0;exitX=1;exitY=0;exitDx=0;exitDy=0;" edge="1" parent="1" source="g7GBnndQMGoT47EMK83g-19" target="g7GBnndQMGoT47EMK83g-22">
          <mxGeometry width="50" height="50" relative="1" as="geometry">
            <mxPoint x="145" y="225" as="sourcePoint" />
            <mxPoint x="145" y="185" as="targetPoint" />
            <Array as="points" />
          </mxGeometry>
        </mxCell>
        <mxCell id="g7GBnndQMGoT47EMK83g-45" value="" style="endArrow=none;dashed=1;html=1;rounded=0;entryX=0;entryY=1;entryDx=0;entryDy=0;exitX=1.007;exitY=0.095;exitDx=0;exitDy=0;exitPerimeter=0;" edge="1" parent="1" source="g7GBnndQMGoT47EMK83g-31" target="g7GBnndQMGoT47EMK83g-28">
          <mxGeometry width="50" height="50" relative="1" as="geometry">
            <mxPoint x="225" y="225" as="sourcePoint" />
            <mxPoint x="225" y="185" as="targetPoint" />
            <Array as="points" />
          </mxGeometry>
        </mxCell>
        <mxCell id="g7GBnndQMGoT47EMK83g-46" value="" style="endArrow=none;dashed=1;html=1;rounded=0;entryX=1;entryY=1;entryDx=0;entryDy=0;exitX=1;exitY=0;exitDx=0;exitDy=0;" edge="1" parent="1" source="g7GBnndQMGoT47EMK83g-27" target="g7GBnndQMGoT47EMK83g-37">
          <mxGeometry width="50" height="50" relative="1" as="geometry">
            <mxPoint x="305" y="224" as="sourcePoint" />
            <mxPoint x="225" y="185" as="targetPoint" />
            <Array as="points" />
          </mxGeometry>
        </mxCell>
        <mxCell id="g7GBnndQMGoT47EMK83g-47" value="firstIdx[i] = lastIdx[i-1] + offset[i] + 1" style="text;html=1;strokeColor=none;fillColor=none;align=center;verticalAlign=middle;whiteSpace=wrap;rounded=0;" vertex="1" parent="1">
          <mxGeometry x="445" y="50" width="250" height="30" as="geometry" />
        </mxCell>
        <mxCell id="g7GBnndQMGoT47EMK83g-48" value="&lt;font style=&quot;font-size: 9px;&quot;&gt;firstIdx[0]&lt;/font&gt;" style="text;html=1;align=center;verticalAlign=middle;resizable=0;points=[];autosize=1;strokeColor=none;fillColor=none;" vertex="1" parent="1">
          <mxGeometry x="125" y="265" width="60" height="30" as="geometry" />
        </mxCell>
        <mxCell id="g7GBnndQMGoT47EMK83g-49" value="&lt;font style=&quot;font-size: 9px;&quot;&gt;lastIdx[0]&lt;/font&gt;" style="text;html=1;align=center;verticalAlign=middle;resizable=0;points=[];autosize=1;strokeColor=none;fillColor=none;" vertex="1" parent="1">
          <mxGeometry x="165" y="265" width="60" height="30" as="geometry" />
        </mxCell>
        <mxCell id="g7GBnndQMGoT47EMK83g-50" value="&lt;font style=&quot;font-size: 9px;&quot;&gt;firstIdx[1]&lt;/font&gt;" style="text;html=1;align=center;verticalAlign=middle;resizable=0;points=[];autosize=1;strokeColor=none;fillColor=none;" vertex="1" parent="1">
          <mxGeometry x="285" y="265" width="60" height="30" as="geometry" />
        </mxCell>
        <mxCell id="g7GBnndQMGoT47EMK83g-51" value="&lt;font style=&quot;font-size: 9px;&quot;&gt;lastIdx[1]&lt;/font&gt;" style="text;html=1;align=center;verticalAlign=middle;resizable=0;points=[];autosize=1;strokeColor=none;fillColor=none;" vertex="1" parent="1">
          <mxGeometry x="365" y="265" width="60" height="30" as="geometry" />
        </mxCell>
        <mxCell id="g7GBnndQMGoT47EMK83g-52" value="offset -2 length 2" style="rounded=0;whiteSpace=wrap;html=1;" vertex="1" parent="1">
          <mxGeometry x="135" y="525" width="80" height="40" as="geometry" />
        </mxCell>
        <mxCell id="g7GBnndQMGoT47EMK83g-53" value="spansA" style="text;html=1;align=center;verticalAlign=middle;resizable=0;points=[];autosize=1;strokeColor=none;fillColor=none;" vertex="1" parent="1">
          <mxGeometry x="30" y="530" width="60" height="30" as="geometry" />
        </mxCell>
        <mxCell id="g7GBnndQMGoT47EMK83g-54" value="1" style="rounded=0;whiteSpace=wrap;html=1;" vertex="1" parent="1">
          <mxGeometry x="135" y="605" width="40" height="40" as="geometry" />
        </mxCell>
        <mxCell id="g7GBnndQMGoT47EMK83g-55" value="1" style="rounded=0;whiteSpace=wrap;html=1;" vertex="1" parent="1">
          <mxGeometry x="175" y="605" width="40" height="40" as="geometry" />
        </mxCell>
        <mxCell id="g7GBnndQMGoT47EMK83g-56" value="bucketsA" style="text;html=1;align=center;verticalAlign=middle;resizable=0;points=[];autosize=1;strokeColor=none;fillColor=none;" vertex="1" parent="1">
          <mxGeometry x="30" y="610" width="70" height="30" as="geometry" />
        </mxCell>
        <mxCell id="g7GBnndQMGoT47EMK83g-57" value="offset 2&lt;br&gt;length 3" style="rounded=0;whiteSpace=wrap;html=1;" vertex="1" parent="1">
          <mxGeometry x="295" y="525" width="120" height="40" as="geometry" />
        </mxCell>
        <mxCell id="g7GBnndQMGoT47EMK83g-58" value="2" style="rounded=0;whiteSpace=wrap;html=1;" vertex="1" parent="1">
          <mxGeometry x="215" y="605" width="40" height="40" as="geometry" />
        </mxCell>
        <mxCell id="g7GBnndQMGoT47EMK83g-59" value="3" style="rounded=0;whiteSpace=wrap;html=1;" vertex="1" parent="1">
          <mxGeometry x="255" y="605" width="40" height="40" as="geometry" />
        </mxCell>
        <mxCell id="g7GBnndQMGoT47EMK83g-60" value="" style="endArrow=classic;startArrow=classic;html=1;rounded=0;entryX=0;entryY=0.5;entryDx=0;entryDy=0;exitX=1;exitY=0.5;exitDx=0;exitDy=0;" edge="1" parent="1" source="g7GBnndQMGoT47EMK83g-52" target="g7GBnndQMGoT47EMK83g-57">
          <mxGeometry width="50" height="50" relative="1" as="geometry">
            <mxPoint x="215" y="555" as="sourcePoint" />
            <mxPoint x="265" y="505" as="targetPoint" />
          </mxGeometry>
        </mxCell>
        <mxCell id="g7GBnndQMGoT47EMK83g-61" value="&lt;span style=&quot;color: rgb(0, 0, 0); font-family: Helvetica; font-size: 12px; font-style: normal; font-variant-ligatures: normal; font-variant-caps: normal; font-weight: 400; letter-spacing: normal; orphans: 2; text-align: center; text-indent: 0px; text-transform: none; widows: 2; word-spacing: 0px; -webkit-text-stroke-width: 0px; background-color: rgb(251, 251, 251); text-decoration-thickness: initial; text-decoration-style: initial; text-decoration-color: initial; float: none; display: inline !important;&quot;&gt;offset 2&lt;/span&gt;" style="text;whiteSpace=wrap;html=1;" vertex="1" parent="1">
          <mxGeometry x="235" y="520" width="60" height="40" as="geometry" />
        </mxCell>
        <mxCell id="g7GBnndQMGoT47EMK83g-62" value="0" style="text;html=1;strokeColor=none;fillColor=none;align=center;verticalAlign=middle;whiteSpace=wrap;rounded=0;" vertex="1" parent="1">
          <mxGeometry x="145" y="500" width="60" height="30" as="geometry" />
        </mxCell>
        <mxCell id="g7GBnndQMGoT47EMK83g-63" value="1" style="text;html=1;strokeColor=none;fillColor=none;align=center;verticalAlign=middle;whiteSpace=wrap;rounded=0;" vertex="1" parent="1">
          <mxGeometry x="325" y="500" width="60" height="30" as="geometry" />
        </mxCell>
        <mxCell id="g7GBnndQMGoT47EMK83g-64" value="3" style="rounded=0;whiteSpace=wrap;html=1;" vertex="1" parent="1">
          <mxGeometry x="295" y="605" width="40" height="40" as="geometry" />
        </mxCell>
        <mxCell id="g7GBnndQMGoT47EMK83g-65" value="0" style="text;html=1;strokeColor=none;fillColor=none;align=center;verticalAlign=middle;whiteSpace=wrap;rounded=0;" vertex="1" parent="1">
          <mxGeometry x="125" y="580" width="60" height="30" as="geometry" />
        </mxCell>
        <mxCell id="g7GBnndQMGoT47EMK83g-66" value="1" style="text;html=1;strokeColor=none;fillColor=none;align=center;verticalAlign=middle;whiteSpace=wrap;rounded=0;" vertex="1" parent="1">
          <mxGeometry x="165" y="580" width="60" height="30" as="geometry" />
        </mxCell>
        <mxCell id="g7GBnndQMGoT47EMK83g-67" value="2" style="text;html=1;strokeColor=none;fillColor=none;align=center;verticalAlign=middle;whiteSpace=wrap;rounded=0;" vertex="1" parent="1">
          <mxGeometry x="205" y="580" width="60" height="30" as="geometry" />
        </mxCell>
        <mxCell id="g7GBnndQMGoT47EMK83g-68" value="3" style="text;html=1;strokeColor=none;fillColor=none;align=center;verticalAlign=middle;whiteSpace=wrap;rounded=0;" vertex="1" parent="1">
          <mxGeometry x="245" y="580" width="60" height="30" as="geometry" />
        </mxCell>
        <mxCell id="g7GBnndQMGoT47EMK83g-69" value="4" style="text;html=1;strokeColor=none;fillColor=none;align=center;verticalAlign=middle;whiteSpace=wrap;rounded=0;" vertex="1" parent="1">
          <mxGeometry x="285" y="580" width="60" height="30" as="geometry" />
        </mxCell>
      </root>
    </mxGraphModel>
  </diagram>
</mxfile>
